<!-- icon666.com - MILLIONS vector ICONS FREE --><svg version="1.1" id="Capa_1" xmlns="http://www.w3.org/2000/svg" xmlns:xlink="http://www.w3.org/1999/xlink" x="0px" y="0px" viewBox="0 0 512 512" style="enable-background:new 0 0 512 512;" xml:space="preserve"><g><g><path d="M403,292.186c4.142,0,7.5-3.358,7.5-7.5V258.03c0-18.794-15.236-34.03-34.03-34.03H365.5V14.682 C365.5,6.586,358.621,0,350.165,0h-200.33C141.379,0,134.5,6.586,134.5,14.682v93.49c-18.49,1.768-33,17.384-33,36.329 c0,11.811,5.644,22.324,14.371,29c-8.727,6.676-14.371,17.189-14.371,29c0,11.811,5.644,22.324,14.371,29 c-8.727,6.676-14.371,17.189-14.371,29c0,11.917,5.742,22.516,14.603,29.182c-9.166,6.895-14.995,18.001-14.582,30.418 c0.657,19.78,17.354,35.263,37.145,35.263h1.907c1.303,30.41,23.116,55.581,51.927,62.021V504.5c0,4.142,3.358,7.5,7.5,7.5h158 c4.142,0,7.5-3.358,7.5-7.5v-89.092c26.146-8.966,45-33.777,45-62.925v-24.138c0-4.142-3.358-7.5-7.5-7.5 c-4.142,0.001-7.5,3.359-7.5,7.501v24.138c0,28.452-23.065,51.516-51.516,51.516h-15.67c-4.107,0-7.688,3.164-7.811,7.269 C320.376,415.517,323.781,419,328,419h15.983c2.199,0,4.372-0.114,6.517-0.323V497h-143v-78h12.186 c4.107,0,7.688-3.164,7.811-7.269C227.625,407.484,224.22,404,220,404h-12.983c-27.439,0-49.932-21.565-51.432-48.636H160 c16.791,0,30.961-11.4,35.199-26.864h126.423c-1.916,6.355-3.101,13.299-3.122,20.79c-0.011,3.822,2.799,7.213,6.596,7.657 c4.547,0.531,8.404-3.007,8.404-7.447c0-32.567,28.603-53.71,28.877-53.91c2.923-2.101,3.977-6.02,2.376-9.356 c-1.276-2.658-4.089-4.234-7.037-4.234h-49.188c-11.643,0-21.572-9.036-22.012-20.67C286.053,249.099,295.869,239,308,239h68.47 c10.51,0,19.03,8.52,19.03,19.03v26.656C395.5,288.828,398.858,292.186,403,292.186z M160,340.364h-22 c-11.855,0-21.5-9.645-21.5-21.5c0-11.855,9.645-21.5,21.5-21.5h22c11.855,0,21.5,9.645,21.5,21.5 C181.5,330.719,171.855,340.364,160,340.364z M160,282h-22c-11.855,0-21.5-9.645-21.5-21.5c0-11.855,9.645-21.5,21.5-21.5h22 c11.855,0,21.5,9.645,21.5,21.5S171.855,282,160,282z M160,224h-22c-11.855,0-21.5-9.645-21.5-21.5S126.145,181,138,181h22 c11.855,0,21.5,9.645,21.5,21.5S171.855,224,160,224z M160,166h-22c-11.855,0-21.5-9.645-21.5-21.5S126.145,123,138,123h22 c11.855,0,21.5,9.645,21.5,21.5S171.855,166,160,166z M308,297h31.316c-3.847,4.482-7.9,10.022-11.404,16.5h-131.81 c-1.435-9.702-6.699-18.172-14.205-23.818c3.61-2.716,6.698-6.088,9.095-9.934h86.015C283.457,290.096,294.935,297,308,297z M350.5,224H308c-20.126,0-36.5,16.374-36.5,36.5c0,1.438,0.093,2.853,0.255,4.248h-75.51c0.162-1.395,0.255-2.811,0.255-4.248 c0-11.811-5.644-22.324-14.371-29c8.727-6.676,14.371-17.189,14.371-29c0-11.811-5.644-22.324-14.371-29 c8.727-6.676,14.371-17.189,14.371-29c0-20.126-16.374-36.5-36.5-36.5h-10.5V65h201V224z M350.5,50h-201V15.056 C149.576,15.026,350.165,15,350.165,15c0.148,0,0.259,0.026,0.335,0.056V50z"></path></g></g><g><g><path d="M243,79h-32c-4.143,0-7.5,3.358-7.5,7.5v32c0,4.142,3.357,7.5,7.5,7.5h32c4.143,0,7.5-3.358,7.5-7.5v-32 C250.5,82.358,247.143,79,243,79z"></path></g></g><g><g><path d="M243,137h-32c-4.143,0-7.5,3.358-7.5,7.5v32c0,4.142,3.357,7.5,7.5,7.5h32c4.143,0,7.5-3.358,7.5-7.5v-32 C250.5,140.358,247.143,137,243,137z M235.5,169h-17v-17h17V169z"></path></g></g><g><g><path d="M311,137h-32c-4.143,0-7.5,3.358-7.5,7.5v32c0,4.142,3.357,7.5,7.5,7.5h32c4.143,0,7.5-3.358,7.5-7.5v-32 C318.5,140.358,315.143,137,311,137z M303.5,169h-17v-17h17V169z"></path></g></g><g><g><path d="M311,79h-32c-4.143,0-7.5,3.358-7.5,7.5c0,4.142,3.357,7.5,7.5,7.5h24.5v24.5c0,4.142,3.357,7.5,7.5,7.5 s7.5-3.358,7.5-7.5v-32C318.5,82.358,315.143,79,311,79z"></path></g></g><g><g><path d="M273,25h-45c-4.143,0-7.5,3.358-7.5,7.5c0,4.142,3.357,7.5,7.5,7.5h45c4.143,0,7.5-3.358,7.5-7.5 C280.5,28.358,277.143,25,273,25z"></path></g></g><g><g><circle cx="253" cy="296.5" r="9.5"></circle></g></g></svg>